<mxfile host="app.diagrams.net" modified="2024-03-30T11:06:17.373Z" agent="Mozilla/5.0 (Windows NT 10.0; Win64; x64) AppleWebKit/537.36 (KHTML, like Gecko) Chrome/123.0.0.0 Safari/537.36" etag="_m7praHdWpEOhNcbM0Qh" version="23.1.1" type="device">
  <diagram name="Page-1" id="ZniEbIkIn9xIBWASga4A">
    <mxGraphModel dx="2074" dy="1098" grid="1" gridSize="10" guides="1" tooltips="1" connect="1" arrows="1" fold="1" page="1" pageScale="1" pageWidth="1654" pageHeight="1169" math="0" shadow="0">
      <root>
        <mxCell id="0" />
        <mxCell id="1" parent="0" />
        <mxCell id="bAazGmeSM8O_xBSLyYiB-1" value="Commandes" style="swimlane;childLayout=stackLayout;horizontal=1;startSize=50;horizontalStack=0;rounded=1;fontSize=14;fontStyle=0;strokeWidth=2;resizeParent=0;resizeLast=1;shadow=0;dashed=0;align=center;arcSize=4;whiteSpace=wrap;html=1;" vertex="1" parent="1">
          <mxGeometry x="680" y="360" width="110" height="130" as="geometry" />
        </mxCell>
        <mxCell id="bAazGmeSM8O_xBSLyYiB-2" value="&lt;u&gt;id_Commande&lt;/u&gt;&lt;br&gt;Date_Comande&lt;br&gt;Montant_Total&lt;br&gt;Quantite_Total&lt;br&gt;Statut" style="align=left;strokeColor=none;fillColor=none;spacingLeft=4;fontSize=12;verticalAlign=top;resizable=0;rotatable=0;part=1;html=1;" vertex="1" parent="bAazGmeSM8O_xBSLyYiB-1">
          <mxGeometry y="50" width="110" height="80" as="geometry" />
        </mxCell>
        <mxCell id="bAazGmeSM8O_xBSLyYiB-6" value="Alertes" style="swimlane;childLayout=stackLayout;horizontal=1;startSize=50;horizontalStack=0;rounded=1;fontSize=14;fontStyle=0;strokeWidth=2;resizeParent=0;resizeLast=1;shadow=0;dashed=0;align=center;arcSize=4;whiteSpace=wrap;html=1;" vertex="1" parent="1">
          <mxGeometry x="370" y="365" width="100" height="120" as="geometry" />
        </mxCell>
        <mxCell id="bAazGmeSM8O_xBSLyYiB-7" value="&lt;u&gt;id_Alerte&lt;br&gt;&lt;/u&gt;Message&lt;br&gt;Date_Alerte&lt;br&gt;id_Commande" style="align=left;strokeColor=none;fillColor=none;spacingLeft=4;fontSize=12;verticalAlign=top;resizable=0;rotatable=0;part=1;html=1;" vertex="1" parent="bAazGmeSM8O_xBSLyYiB-6">
          <mxGeometry y="50" width="100" height="70" as="geometry" />
        </mxCell>
        <mxCell id="bAazGmeSM8O_xBSLyYiB-9" value="" style="endArrow=classic;html=1;rounded=0;exitX=1;exitY=0.75;exitDx=0;exitDy=0;entryX=0;entryY=0.5;entryDx=0;entryDy=0;" edge="1" parent="1" source="bAazGmeSM8O_xBSLyYiB-7" target="bAazGmeSM8O_xBSLyYiB-1">
          <mxGeometry width="50" height="50" relative="1" as="geometry">
            <mxPoint x="800" y="590" as="sourcePoint" />
            <mxPoint x="850" y="540" as="targetPoint" />
          </mxGeometry>
        </mxCell>
        <mxCell id="bAazGmeSM8O_xBSLyYiB-10" value="Correspondre" style="swimlane;childLayout=stackLayout;horizontal=1;startSize=50;horizontalStack=0;rounded=1;fontSize=14;fontStyle=0;strokeWidth=2;resizeParent=0;resizeLast=1;shadow=0;dashed=0;align=center;arcSize=4;whiteSpace=wrap;html=1;" vertex="1" parent="1">
          <mxGeometry x="920" y="377.5" width="130" height="95" as="geometry" />
        </mxCell>
        <mxCell id="bAazGmeSM8O_xBSLyYiB-11" value="&lt;u&gt;id_Commande&lt;br&gt;id_Livraison&lt;/u&gt;" style="align=left;strokeColor=none;fillColor=none;spacingLeft=4;fontSize=12;verticalAlign=top;resizable=0;rotatable=0;part=1;html=1;" vertex="1" parent="bAazGmeSM8O_xBSLyYiB-10">
          <mxGeometry y="50" width="130" height="45" as="geometry" />
        </mxCell>
        <mxCell id="bAazGmeSM8O_xBSLyYiB-12" value="" style="endArrow=classic;html=1;rounded=0;exitX=0;exitY=0.25;exitDx=0;exitDy=0;entryX=1.006;entryY=0.175;entryDx=0;entryDy=0;entryPerimeter=0;" edge="1" parent="1" source="bAazGmeSM8O_xBSLyYiB-11" target="bAazGmeSM8O_xBSLyYiB-2">
          <mxGeometry width="50" height="50" relative="1" as="geometry">
            <mxPoint x="800" y="590" as="sourcePoint" />
            <mxPoint x="790" y="420" as="targetPoint" />
          </mxGeometry>
        </mxCell>
        <mxCell id="bAazGmeSM8O_xBSLyYiB-13" value="Bon_De_Livraisons" style="swimlane;childLayout=stackLayout;horizontal=1;startSize=50;horizontalStack=0;rounded=1;fontSize=14;fontStyle=0;strokeWidth=2;resizeParent=0;resizeLast=1;shadow=0;dashed=0;align=center;arcSize=4;whiteSpace=wrap;html=1;" vertex="1" parent="1">
          <mxGeometry x="1160" y="365" width="160" height="120" as="geometry" />
        </mxCell>
        <mxCell id="bAazGmeSM8O_xBSLyYiB-14" value="&lt;u&gt;id_Livraison&lt;br&gt;&lt;/u&gt;Adresse&lt;br&gt;Date_Livraison&lt;br&gt;Numero_Livraison" style="align=left;strokeColor=none;fillColor=none;spacingLeft=4;fontSize=12;verticalAlign=top;resizable=0;rotatable=0;part=1;html=1;" vertex="1" parent="bAazGmeSM8O_xBSLyYiB-13">
          <mxGeometry y="50" width="160" height="70" as="geometry" />
        </mxCell>
        <mxCell id="bAazGmeSM8O_xBSLyYiB-15" value="" style="endArrow=classic;html=1;rounded=0;exitX=1;exitY=0.75;exitDx=0;exitDy=0;entryX=0;entryY=0.25;entryDx=0;entryDy=0;" edge="1" parent="1" source="bAazGmeSM8O_xBSLyYiB-11" target="bAazGmeSM8O_xBSLyYiB-14">
          <mxGeometry width="50" height="50" relative="1" as="geometry">
            <mxPoint x="800" y="590" as="sourcePoint" />
            <mxPoint x="850" y="540" as="targetPoint" />
          </mxGeometry>
        </mxCell>
      </root>
    </mxGraphModel>
  </diagram>
</mxfile>
